# xmcd
#
# Track frame offsets:
#	150
#	12817
#	34373
#	52249
#	70942
#	92775
#	110043
#	130876
#	151980
#	175302
#	196755
#	213707
#	239048
#	267453
#
# Disc length: 3784 seconds
#
# Revision: 1
# Processed by: cddbd v1.5.2PL0 Copyright (c) Steve Scherf et al.
# Submitted via: EasyCDDAExtractor 10.0.2.1
#
DISCID=d60ec60e
DTITLE=Various Artist - Brazil - The Woman's Voice
DYEAR=1900
DGENRE=Brazilian
TTITLE0=Astrud Gilberto - Bossa Na Praia
TTITLE1=Bebel Gilberto - Samba do Bencao
TTITLE2=Paula Morelenbaum - Consolacao
TTITLE3=Joyce - Azul Bahia
TTITLE4=Badi Assad - Waves
TTITLE5=Elis Regina - So Tinha de Ser com Voce
TTITLE6=Cibelle - Dia de yemanja
TTITLE7=Mylene - Eleanor Rigby
TTITLE8=Arkestra One - Shine
TTITLE9=Ive mendes - Luo
TTITLE10=Patricia Marx - Nu
TTITLE11=Juliana Amaral - Ararinha Azul
TTITLE12=Flora Purim - Agua de Beber
TTITLE13=Marlui Miranda - Yny Maj Hyrynh
EXTD=
EXTT0=
EXTT1=
EXTT2=
EXTT3=
EXTT4=
EXTT5=
EXTT6=
EXTT7=
EXTT8=
EXTT9=
EXTT10=
EXTT11=
EXTT12=
EXTT13=
PLAYORDER=
